<?xml version="1.0" encoding="utf-8"?>
<?xml-stylesheet type="text/xsl" href="rss1.xsl"?>
<rss version="2.0" xmlns:atom="http://www.w3.org/2005/Atom" xmlns:content="http://purl.org/rss/1.0/modules/content/" xmlns:dc="http://purl.org/dc/elements/1.1/" xmlns:media="http://search.yahoo.com/mrss/">
<channel>
 <title>Getty</title>
 <link>http://www.gettyimg.com/</link>
 <atom:link href="http://www.gettyimg.com/" rel="self" type="application/rss+xml" />

 
                <item>
                <title><![CDATA[【Requests】[REQ AUD] - Javine - Surrender (album)]]></title>
                <link><![CDATA[https://sharemania.us/threads/javine-surrender-album.250115/]]></link>
                <description><![CDATA[<article>
<blockquote class="messageText SelectQuoteContainer ugc baseHtml">
Hi, can anyone share this album with me in FLAC or similiar high quality? <br>
<a href="https://music.apple.com/dk/album/surrender/724539306" target="_blank" class="externalLink" rel="nofollow">https://music.apple.com/dk/album/surrender/724539306</a><br>
<br>
Thank you
<div class="messageTextEndMarker">&nbsp;</div>
</blockquote>
</article>]]></description>
                <author><![CDATA[Cherish]]></author>
                </item>

                
                <item>
                <title><![CDATA[【Apple Music】WEB-RiP - Honorata Skarbek Honey - Morze Slow (1080p)]]></title>
                <link><![CDATA[https://sharemania.us/threads/honorata-skarbek-honey-morze-slow-1080p.250114/]]></link>
                <description><![CDATA[<article>
<blockquote class="messageText SelectQuoteContainer ugc baseHtml">
<img src="https://i.postimg.cc/FKQ2RMMB/Honorata-Skarbek-Honey-Morze-Slow-mp4.jpg" class="bbCodeImage LbImage" alt="[​IMG]" data-url="https://i.postimg.cc/FKQ2RMMB/Honorata-Skarbek-Honey-Morze-Slow-mp4.jpg" style=""><br>
<br>
<div class="bbCodeBlock bbCodeCode">
<div class="type">Code:</div>
<pre>General
Complete name                  : G:\Новая папка\Honorata Skarbek Honey - Morze Slow.mp4
Format                         : MPEG-4
Format profile                 : Base Media
Codec ID                       : isom (isom/iso2/avc1/mp41)
File size                      : 251 MiB
Duration                       : 3 min 20 s
Overall bit rate               : 10.5 Mb/s
Frame rate                     : 25.000 FPS
Movie name                     : Morze Slow
Performer                      : Honorata Skarbek Honey
Genre                          : Pop
ContentType                    : Music Video
Recorded date                  : 2015-09-25 07:00:00 UTC
Writing application            : Lavf56.30.100
Copyright                      : ℗ 2015 Magic Records

Video
ID                             : 1
Format                         : AVC
Format/Info                    : Advanced Video Codec
Format profile                 : High@L4
Format settings                : CABAC / 4 Ref Frames
Format settings, CABAC         : Yes
Format settings, Reference fra : 4 frames
Format settings, Slice count   : 8 slices per frame
Codec ID                       : avc1
Codec ID/Info                  : Advanced Video Coding
Duration                       : 3 min 20 s
Bit rate                       : 10.3 Mb/s
Width                          : 1 916 pixels
Height                         : 1 076 pixels
Display aspect ratio           : 16:9
Frame rate mode                : Constant
Frame rate                     : 25.000 FPS
Color space                    : YUV
Chroma subsampling             : 4:2:0
Bit depth                      : 8 bits
Scan type                      : Progressive
Bits/(Pixel*Frame)             : 0.199
Stream size                    : 245 MiB (98%)
Color range                    : Limited
Color primaries                : BT.709
Transfer characteristics       : BT.709
Matrix coefficients            : BT.709
Codec configuration box        : avcC

Audio
ID                             : 2
Format                         : AAC LC
Format/Info                    : Advanced Audio Codec Low Complexity
Codec ID                       : mp4a-40-2
Duration                       : 3 min 20 s
Duration_LastFrame             : -12 ms
Bit rate mode                  : Constant
Bit rate                       : 249 kb/s
Channel(s)                     : 2 channels
Channel layout                 : L R
Sampling rate                  : 48.0 kHz
Frame rate                     : 46.875 FPS (1024 SPF)
Compression mode               : Lossy
Stream size                    : 5.94 MiB (2%)
Default                        : Yes
Alternate group                : 1

</pre>
</div>
<div class="bbCodeBlock bbCodeVfcHH HiddenContent">
<div class="attribution type">Hidden Content:</div>
<blockquote>You must either reply or click 'Like' to see the hidden information contained here.</blockquote>
</div>
<div class="messageTextEndMarker">&nbsp;</div>
</blockquote>
</article>]]></description>
                <author><![CDATA[vitalya3]]></author>
                </item>

                
                <item>
                <title><![CDATA[【Apple Music】WEB-RiP - Sylwia Grzeszczak - Tamta Dziewczyna (1080p)]]></title>
                <link><![CDATA[https://sharemania.us/threads/sylwia-grzeszczak-tamta-dziewczyna-1080p.250116/]]></link>
                <description><![CDATA[<article>
<blockquote class="messageText SelectQuoteContainer ugc baseHtml">
<img src="https://i.postimg.cc/pVpqN2rJ/Sylwia-Grzeszczak-Tamta-Dziewczyna-mp4.jpg" class="bbCodeImage LbImage" alt="[​IMG]" data-url="https://i.postimg.cc/pVpqN2rJ/Sylwia-Grzeszczak-Tamta-Dziewczyna-mp4.jpg" style=""><br>
<br>
<div class="bbCodeBlock bbCodeCode">
<div class="type">Code:</div>
<pre>General
Complete name                  : G:\Новая папка\Sylwia Grzeszczak - Tamta Dziewczyna.mp4
Format                         : MPEG-4
Format profile                 : Base Media
Codec ID                       : isom (isom/iso2/avc1/mp41)
File size                      : 153 MiB
Duration                       : 3 min 8 s
Overall bit rate               : 6 789 kb/s
Frame rate                     : 25.000 FPS
Movie name                     : Tamta Dziewczyna
Performer                      : Sylwia Grzeszczak
Genre                          : Pop
ContentType                    : Music Video
Recorded date                  : 2016-05-24 07:00:00 UTC
Writing application            : Lavf56.30.100
Copyright                      : ℗ 2016 The copyright in this sound recording is owned by Gorgo Music under exclusive licence to Warner Music Poland, A Warner Music Group Company

Video
ID                             : 1
Format                         : AVC
Format/Info                    : Advanced Video Codec
Format profile                 : High@L4
Format settings                : CABAC / 5 Ref Frames
Format settings, CABAC         : Yes
Format settings, Reference fra : 5 frames
Format settings, Slice count   : 8 slices per frame
Codec ID                       : avc1
Codec ID/Info                  : Advanced Video Coding
Duration                       : 3 min 8 s
Bit rate                       : 6 528 kb/s
Width                          : 1 920 pixels
Height                         : 816 pixels
Display aspect ratio           : 2.35:1
Frame rate mode                : Constant
Frame rate                     : 25.000 FPS
Color space                    : YUV
Chroma subsampling             : 4:2:0
Bit depth                      : 8 bits
Scan type                      : Progressive
Bits/(Pixel*Frame)             : 0.167
Stream size                    : 147 MiB (96%)
Color range                    : Limited
Color primaries                : BT.709
Transfer characteristics       : BT.709
Matrix coefficients            : BT.709
Codec configuration box        : avcC

Audio
ID                             : 2
Format                         : AAC LC
Format/Info                    : Advanced Audio Codec Low Complexity
Codec ID                       : mp4a-40-2
Duration                       : 3 min 8 s
Duration_LastFrame             : -17 ms
Bit rate mode                  : Constant
Bit rate                       : 257 kb/s
Channel(s)                     : 2 channels
Channel layout                 : L R
Sampling rate                  : 48.0 kHz
Frame rate                     : 46.875 FPS (1024 SPF)
Compression mode               : Lossy
Stream size                    : 5.78 MiB (4%)
Default                        : Yes
Alternate group                : 1

</pre>
</div>
<div class="bbCodeBlock bbCodeVfcHH HiddenContent">
<div class="attribution type">Hidden Content:</div>
<blockquote>You must either reply or click 'Like' to see the hidden information contained here.</blockquote>
</div>
<div class="messageTextEndMarker">&nbsp;</div>
</blockquote>
</article>]]></description>
                <author><![CDATA[vitalya3]]></author>
                </item>

                
                <item>
                <title><![CDATA[【Apple Music】WEB-RiP - Enrique Iglesias - I'm a Freak (feat. Pitbull) (1080p)]]></title>
                <link><![CDATA[https://sharemania.us/threads/enrique-iglesias-im-a-freak-feat-pitbull-1080p.250112/]]></link>
                <description><![CDATA[<article>
<blockquote class="messageText SelectQuoteContainer ugc baseHtml">
<img src="https://i.postimg.cc/C5xbhKMs/Enrique-Iglesias-I-m-a-Freak-feat-Pitbull-mp4.jpg" class="bbCodeImage LbImage" alt="[​IMG]" data-url="https://i.postimg.cc/C5xbhKMs/Enrique-Iglesias-I-m-a-Freak-feat-Pitbull-mp4.jpg" style=""><br>
<br>
<div class="bbCodeBlock bbCodeCode">
<div class="type">Code:</div>
<pre>General
Complete name                  : G:\Новая папка\Enrique Iglesias - I'm a Freak (feat. Pitbull).mp4
Format                         : MPEG-4
Format profile                 : Base Media
Codec ID                       : isom (isom/iso2/avc1/mp41)
File size                      : 284 MiB
Duration                       : 3 min 54 s
Overall bit rate               : 10.2 Mb/s
Frame rate                     : 23.976 FPS
Movie name                     : I'm a Freak (feat. Pitbull)
Performer                      : Enrique Iglesias
Genre                          : Latin
ContentType                    : Music Video
Recorded date                  : 2014-01-01 08:00:00 UTC
Writing application            : Lavf56.30.100
Copyright                      : ℗ 2014 Universal International Music B.V.

Video
ID                             : 1
Format                         : AVC
Format/Info                    : Advanced Video Codec
Format profile                 : High@L4
Format settings                : CABAC / 4 Ref Frames
Format settings, CABAC         : Yes
Format settings, Reference fra : 4 frames
Format settings, Slice count   : 8 slices per frame
Codec ID                       : avc1
Codec ID/Info                  : Advanced Video Coding
Duration                       : 3 min 54 s
Bit rate                       : 9 912 kb/s
Width                          : 1 920 pixels
Height                         : 1 080 pixels
Display aspect ratio           : 16:9
Frame rate mode                : Constant
Frame rate                     : 23.976 (23976/1000) FPS
Color space                    : YUV
Chroma subsampling             : 4:2:0
Bit depth                      : 8 bits
Scan type                      : Progressive
Bits/(Pixel*Frame)             : 0.199
Stream size                    : 277 MiB (98%)
Color range                    : Limited
Color primaries                : BT.709
Transfer characteristics       : BT.709
Matrix coefficients            : BT.709
Codec configuration box        : avcC

Audio
ID                             : 2
Format                         : AAC LC
Format/Info                    : Advanced Audio Codec Low Complexity
Codec ID                       : mp4a-40-2
Duration                       : 3 min 54 s
Duration_LastFrame             : -15 ms
Bit rate mode                  : Constant
Bit rate                       : 249 kb/s
Channel(s)                     : 2 channels
Channel layout                 : L R
Sampling rate                  : 48.0 kHz
Frame rate                     : 46.875 FPS (1024 SPF)
Compression mode               : Lossy
Stream size                    : 6.95 MiB (2%)
Default                        : Yes
Alternate group                : 1

</pre>
</div>
<div class="bbCodeBlock bbCodeVfcHH HiddenContent">
<div class="attribution type">Hidden Content:</div>
<blockquote>You must either reply or click 'Like' to see the hidden information contained here.</blockquote>
</div>
<div class="messageTextEndMarker">&nbsp;</div>
</blockquote>
</article>]]></description>
                <author><![CDATA[vitalya3]]></author>
                </item>

                
                <item>
                <title><![CDATA[【Apple Music】WEB-RiP - Elena - Mamma mia (He's italiano) [feat. Glance] (1080p)]]></title>
                <link><![CDATA[https://sharemania.us/threads/elena-mamma-mia-hes-italiano-feat-glance-1080p.250117/]]></link>
                <description><![CDATA[<article>
<blockquote class="messageText SelectQuoteContainer ugc baseHtml">
<img src="https://i.postimg.cc/hjgWyXcs/Elena-Mamma-mia-He-s-italiano-feat-Glance-mp4.jpg" class="bbCodeImage LbImage" alt="[​IMG]" data-url="https://i.postimg.cc/hjgWyXcs/Elena-Mamma-mia-He-s-italiano-feat-Glance-mp4.jpg" style=""><br>
<br>
<div class="bbCodeBlock bbCodeCode">
<div class="type">Code:</div>
<pre>General
Complete name                  : G:\Новая папка\Elena - Mamma mia (He's italiano) [feat. Glance].mp4
Format                         : MPEG-4
Format profile                 : Base Media
Codec ID                       : isom (isom/iso2/avc1/mp41)
File size                      : 177 MiB
Duration                       : 3 min 38 s
Overall bit rate               : 6 806 kb/s
Frame rate                     : 25.000 FPS
Movie name                     : Mamma mia (He's italiano) [feat. Glance]
Performer                      : Elena
Genre                          : Dance
ContentType                    : Music Video
Recorded date                  : 2021-09-02 07:00:00 UTC
Writing application            : Lavf56.30.100
Copyright                      : ℗ 2014 Cat Music

Video
ID                             : 1
Format                         : AVC
Format/Info                    : Advanced Video Codec
Format profile                 : High@L4
Format settings                : CABAC / 5 Ref Frames
Format settings, CABAC         : Yes
Format settings, Reference fra : 5 frames
Format settings, Slice count   : 8 slices per frame
Codec ID                       : avc1
Codec ID/Info                  : Advanced Video Coding
Duration                       : 3 min 38 s
Bit rate                       : 6 540 kb/s
Width                          : 1 920 pixels
Height                         : 864 pixels
Display aspect ratio           : 2.222
Frame rate mode                : Constant
Frame rate                     : 25.000 FPS
Color space                    : YUV
Chroma subsampling             : 4:2:0
Bit depth                      : 8 bits
Scan type                      : Progressive
Bits/(Pixel*Frame)             : 0.158
Stream size                    : 170 MiB (96%)
Color range                    : Limited
Color primaries                : BT.709
Transfer characteristics       : BT.709
Matrix coefficients            : BT.709
Codec configuration box        : avcC

Audio
ID                             : 2
Format                         : AAC LC
Format/Info                    : Advanced Audio Codec Low Complexity
Codec ID                       : mp4a-40-2
Duration                       : 3 min 38 s
Duration_LastFrame             : -20 ms
Bit rate mode                  : Constant
Bit rate                       : 265 kb/s
Channel(s)                     : 2 channels
Channel layout                 : L R
Sampling rate                  : 48.0 kHz
Frame rate                     : 46.875 FPS (1024 SPF)
Compression mode               : Lossy
Stream size                    : 6.79 MiB (4%)
Default                        : Yes
Alternate group                : 1

</pre>
</div>
<div class="bbCodeBlock bbCodeVfcHH HiddenContent">
<div class="attribution type">Hidden Content:</div>
<blockquote>You must either reply or click 'Like' to see the hidden information contained here.</blockquote>
</div>
<div class="messageTextEndMarker">&nbsp;</div>
</blockquote>
</article>]]></description>
                <author><![CDATA[vitalya3]]></author>
                </item>

                
                <item>
                <title><![CDATA[【HD Live Performances】HDTV - Eminem - Live From Detroit - The Concert at Michigan Central (2024) 1080i HDTV Backhaul FLAC 5.1 H.264-TrollHD]]></title>
                <link><![CDATA[https://sharemania.us/threads/eminem-live-from-detroit-the-concert-at-michigan-central-2024-1080i-hdtv-backhaul-flac-5-1-h-264-trollhd.250113/]]></link>
                <description><![CDATA[<article>
<blockquote class="messageText SelectQuoteContainer ugc baseHtml">
<span style="font-size: 15px"><img src="https://i.imgur.com/8MoMWCq.jpeg" class="bbCodeImage LbImage" alt="[​IMG]" data-url="https://i.imgur.com/8MoMWCq.jpeg" style=""> </span><br>
<span style="font-family: 'Times New Roman'"><span style="font-size: 15px"><br>
<div class="ToggleTriggerAnchor bbCodeSpoilerContainer">
<button type="button" class="button bbCodeSpoilerButton ToggleTrigger Tooltip JsOnly" data-target="> .SpoilerTarget"><span>Spoiler: <span class="SpoilerTitle">MediaInfo</span></span></button>
<div class="SpoilerTarget bbCodeSpoilerText">General<br>
Unique ID : 34505719197357676567738283899921694419 (0x19F58F4E19ED16DF3A38D1B70834FED3)<br>
Complete name : C:\Eminem - Live From Detroit - The Concert at Michigan Central (2024) 1080i HDTV Backhaul FLAC 5.1 H.264-TrollHD.mkv<br>
Format : Matroska<br>
Format version : Version 4<br>
File size : 2.97 GiB<br>
Duration : 13 min 14 s<br>
Overall bit rate mode : Variable<br>
Overall bit rate : 32.1 Mb/s<br>
Frame rate : 59.940 FPS<br>
Encoded date : 2024-07-16 20:33:14 UTC<br>
Writing application : mkvmerge v30.0.0 ('Interstellar') 64-bit<br>
Writing library : libebml v1.3.6 + libmatroska v1.4.9<br>
<br>
Video<br>
ID : 1<br>
Format : AVC<br>
Format/Info : Advanced Video Codec<br>
Format profile : High@L4.1<br>
Format settings : CABAC / 4 Ref Frames<br>
Format settings, CABAC : Yes<br>
Format settings, Reference frames : 4 frames<br>
Format settings, GOP : M=4, N=32<br>
Codec ID : V_MPEG4/ISO/AVC<br>
Duration : 13 min 14 s<br>
Bit rate : 30.4 Mb/s<br>
Width : 1 920 pixels<br>
Height : 1 080 pixels<br>
Display aspect ratio : 16:9<br>
Frame rate mode : Variable<br>
Frame rate : 59.940 (59940/1000) FPS<br>
Original frame rate : 29.970 (30000/1001) FPS<br>
Color space : YUV<br>
Chroma subsampling : 4:2:0<br>
Bit depth : 8 bits<br>
Scan type : Interlaced<br>
Scan type, store method : Separated fields<br>
Scan order : Top Field First<br>
Bits/(Pixel*Frame) : 0.244<br>
Stream size : 2.81 GiB (94%)<br>
Default : Yes<br>
Forced : No<br>
Color range : Limited<br>
Color primaries : BT.709<br>
Transfer characteristics : BT.709<br>
Matrix coefficients : BT.709<br>
<br>
Audio<br>
ID : 2<br>
Format : FLAC<br>
Format/Info : Free Lossless Audio Codec<br>
Codec ID : A_FLAC<br>
Duration : 13 min 14 s<br>
Bit rate mode : Variable<br>
Bit rate : 1 768 kb/s<br>
Channel(s) : 6 channels<br>
Channel layout : L R C LFE Ls Rs<br>
Sampling rate : 48.0 kHz<br>
Frame rate : 11.720 FPS (4096 SPF)<br>
Bit depth : 16 bits<br>
Compression mode : Lossless<br>
Delay relative to video : 162 ms<br>
Stream size : 167 MiB (5%)<br>
Writing library : libFLAC 1.3.2 (2019-08-04)<br>
Language : English<br>
Default : Yes<br>
Forced : No<br>
MD5 of the unencoded content : 3235E910680F9AC9F946B8758115B687</div>
</div><br>
Setlist:</span></span><br>
<ol>
<li><span style="font-family: 'Times New Roman'"><span style="font-size: 15px">Houdini</span></span></li>
<li><span style="font-family: 'Times New Roman'"><span style="font-size: 15px">Sing for the Moment</span></span></li>
<li><span style="font-family: 'Times New Roman'"><span style="font-size: 15px">Welcome 2 Detroit</span></span></li>
<li><span style="font-family: 'Times New Roman'"><span style="font-size: 15px">Not Afraid</span></span></li>
</ol><span style="font-family: 'Times New Roman'"><span style="font-size: 15px"><br>
<div class="bbCodeBlock bbCodeVfcHH HiddenContent">
<div class="attribution type">Hidden Content:</div>
<blockquote>You must either reply or click 'Like' to see the hidden information contained here.</blockquote>
</div>Capper: TrollHD<br>
<br>
Thanks to <a href="https://sharemania.us/members/10931/" class="username" data-user="10931, @Dream66">@Dream66</a> for posting whole concet</span></span>
<div class="messageTextEndMarker">&nbsp;</div>
</blockquote>
</article>]]></description>
                <author><![CDATA[mariellisaa]]></author>
                </item>

                </channel></rss>